<?xml version="1.0" encoding="UTF-8" standalone="no"?>
<!-- Created with Inkscape (http://www.inkscape.org/) -->

<svg
   xmlns:dc="http://purl.org/dc/elements/1.1/"
   xmlns:cc="http://creativecommons.org/ns#"
   xmlns:rdf="http://www.w3.org/1999/02/22-rdf-syntax-ns#"
   xmlns:svg="http://www.w3.org/2000/svg"
   xmlns="http://www.w3.org/2000/svg"
   xmlns:sodipodi="http://sodipodi.sourceforge.net/DTD/sodipodi-0.dtd"
   xmlns:inkscape="http://www.inkscape.org/namespaces/inkscape"
   version="1.1"
   id="svg10"
   width="92"
   height="32"
   viewBox="0 0 92 32"
   sodipodi:docname="capa-cedears16.svg"
   inkscape:version="0.92.1 r15371">
  <metadata
     id="metadata16">
    <rdf:RDF>
      <cc:Work
         rdf:about="">
        <dc:format>image/svg+xml</dc:format>
        <dc:type
           rdf:resource="http://purl.org/dc/dcmitype/StillImage" />
        <dc:title></dc:title>
      </cc:Work>
    </rdf:RDF>
  </metadata>
  <defs
     id="defs14" />
  <sodipodi:namedview
     pagecolor="#ffffff"
     bordercolor="#666666"
     borderopacity="1"
     objecttolerance="10"
     gridtolerance="10"
     guidetolerance="10"
     inkscape:pageopacity="0"
     inkscape:pageshadow="2"
     inkscape:window-width="1920"
     inkscape:window-height="1000"
     id="namedview12"
     showgrid="false"
     inkscape:zoom="4.7378049"
     inkscape:cx="54.153373"
     inkscape:cy="15.25877"
     inkscape:window-x="-11"
     inkscape:window-y="-11"
     inkscape:window-maximized="1"
     inkscape:current-layer="svg10" />
  <g
     id="g20"
     transform="translate(-165.16602,-553.92535)">
    <path
       style="fill:#fe3265;stroke-width:0.09362128"
       d="m 185.82396,585.70871 c -0.53964,-0.17404 -1.04571,-0.49231 -1.37458,-0.86449 -0.19218,-0.21749 -1.06959,-1.72669 -1.94979,-3.35378 -1.1623,-2.14856 -1.65005,-2.96605 -1.78186,-2.9865 -0.14912,-0.0231 -0.41324,0.39732 -1.48082,2.35743 -0.71463,1.31207 -1.39145,2.48468 -1.50405,2.60579 -0.2749,0.29568 -0.88802,0.56154 -1.29503,0.56154 -0.47036,0 -1.072,-0.29266 -1.34881,-0.65612 -0.3101,-0.40716 -9.44858,-17.27398 -9.63933,-17.79123 -0.12363,-0.33524 -0.12814,-0.46759 -0.0287,-0.84201 0.1431,-0.53873 0.67801,-1.07637 1.21575,-1.22196 0.22297,-0.0604 1.43974,-0.0997 3.09331,-0.10003 2.69358,-5.5e-4 2.72577,-0.003 2.72577,-0.19198 0,-0.10531 -0.65494,-1.40536 -1.45543,-2.889 -0.80048,-1.48365 -1.50974,-2.85943 -1.57613,-3.0573 -0.0729,-0.21715 -0.10267,-0.60557 -0.0752,-0.97991 0.081,-1.10336 0.78707,-2.02784 1.81648,-2.37825 0.45697,-0.15556 1.33823,-0.1649 15.5591,-0.1649 h 15.07468 l 0.53867,0.25794 c 0.61308,0.29357 1.06307,0.74756 1.3349,1.34678 0.15135,0.33363 0.1791,0.55499 0.14548,1.1603 l -0.0416,0.74801 -7.46493,13.68232 c -4.41401,8.09036 -7.58863,13.80849 -7.76761,13.99103 -0.46642,0.4757 -1.12256,0.76072 -1.8526,0.80474 -0.34689,0.0209 -0.73736,0.004 -0.86772,-0.0384 z m -4.47481,-8.55386 c 0.14093,-0.0711 0.3254,-0.20627 0.40993,-0.30046 0.0845,-0.0942 1.63102,-2.87606 3.43662,-6.18195 2.39543,-4.38579 3.28292,-6.09273 3.28292,-6.31417 0,-0.41527 -0.23386,-0.82162 -0.59716,-1.03762 -0.29362,-0.17458 -0.5263,-0.18046 -7.1298,-0.18046 -6.59929,0 -6.83635,0.006 -7.12926,0.18013 -0.42506,0.25272 -0.62931,0.59845 -0.62931,1.06521 0,0.34671 0.41696,1.16613 3.15986,6.20984 1.73792,3.19574 3.24419,5.92895 3.34727,6.07381 0.40224,0.5653 1.24958,0.78788 1.84893,0.48567 z m 31.15081,-0.15218 c -0.55126,-0.16357 -1.19163,-0.66817 -1.47391,-1.16142 -0.17611,-0.30773 -0.88035,-2.5405 -2.02268,-6.4128 -0.96387,-3.26738 -1.7525,-5.99825 -1.7525,-6.0686 0,-0.10339 0.28063,-0.12791 1.46395,-0.12791 0.80517,0 1.48544,0.0339 1.51171,0.0753 0.0263,0.0415 0.69012,2.40089 1.47522,5.24321 0.7851,2.84232 1.48781,5.2267 1.56157,5.29862 0.0851,0.083 0.22275,0.10908 0.37687,0.0714 0.19473,-0.0476 0.27059,-0.15519 0.38344,-0.54356 0.0774,-0.26628 0.72053,-2.58503 1.42923,-5.15278 0.70871,-2.56775 1.3106,-4.74143 1.33754,-4.83041 0.0439,-0.14503 0.20054,-0.16179 1.51215,-0.16179 1.21911,0 1.46316,0.0225 1.46316,0.13489 0,0.18473 -3.37849,11.80844 -3.5454,12.19797 -0.1969,0.4595 -0.73778,1.00072 -1.25862,1.2594 -0.37196,0.18474 -0.61805,0.23111 -1.31119,0.24704 -0.4693,0.0108 -0.98705,-0.0201 -1.15054,-0.0686 z m 24.15603,-0.0917 c -1.46482,-0.37412 -2.22667,-1.1993 -2.47275,-2.67829 -0.13168,-0.79142 -0.13168,-7.5278 0,-8.31922 0.26259,-1.57818 1.24009,-2.50076 2.93258,-2.76781 1.22037,-0.19256 5.04273,-0.0592 5.5258,0.19277 0.14881,0.0776 0.16585,0.20671 0.14221,1.07711 l -0.0269,0.98891 -2.46504,0.0462 c -1.75231,0.0329 -2.52644,0.0804 -2.67738,0.16452 -0.43351,0.24152 -0.54284,0.61985 -0.54455,1.88439 -9.5e-4,0.64386 0.0339,1.20548 0.0773,1.24805 0.0434,0.0426 1.2913,0.0896 2.77317,0.10456 l 2.69431,0.0272 v 1.05504 1.05503 l -2.70562,0.0272 c -2.27768,0.0229 -2.72075,0.0491 -2.80129,0.16585 -0.0569,0.0825 -0.0824,0.64422 -0.0628,1.38672 0.0353,1.34011 0.14748,1.72664 0.56953,1.96178 0.15094,0.0841 0.92507,0.13167 2.67738,0.16453 l 2.46504,0.0462 0.0268,1.03753 c 0.0262,1.01418 0.0219,1.03862 -0.18962,1.08647 -0.6038,0.13656 -2.0974,0.23145 -3.58213,0.22758 -1.32252,-0.003 -1.80056,-0.0404 -2.35602,-0.18231 z m 8.55893,-0.0277 c -0.0267,-0.0679 0.89354,-1.65617 2.045,-3.52959 1.15146,-1.87341 2.07143,-3.46243 2.04438,-3.53117 -0.0271,-0.0687 -0.98862,-1.56013 -2.13684,-3.31421 -1.14821,-1.75408 -2.08766,-3.20979 -2.08766,-3.23491 0,-0.0251 0.77378,-0.0343 1.71952,-0.0205 l 1.71951,0.0252 1.29282,1.98763 c 0.96958,1.49068 1.33957,1.98763 1.47982,1.98763 0.14142,0 0.497,-0.49011 1.45876,-2.01074 l 1.27176,-2.01075 h 1.60761 1.60761 l -0.13619,0.20801 c -2.3298,3.55859 -4.16131,6.47625 -4.12434,6.57021 0.0262,0.0666 1.00417,1.59527 2.17323,3.39704 1.16906,1.80177 2.15723,3.32794 2.19593,3.3915 0.0553,0.0907 -0.30225,0.11533 -1.6655,0.1145 l -1.73586,-0.001 -1.37474,-2.1249 c -1.04775,-1.61949 -1.41983,-2.12473 -1.56435,-2.1242 -0.14712,5.5e-4 -0.47222,0.47489 -1.45044,2.11634 -0.91083,1.52838 -1.31875,2.1308 -1.46955,2.17023 -0.11479,0.03 -0.79669,0.0551 -1.51532,0.0558 -1.00296,9.7e-4 -1.31789,-0.0274 -1.35516,-0.12212 z m -19.66584,-5.47334 c 0,-3.6208 -0.0336,-5.57044 -0.0982,-5.68797 -0.0914,-0.16653 -0.21434,-0.17882 -1.78977,-0.17882 -1.33113,0 -1.715,-0.0275 -1.80135,-0.12892 -0.0722,-0.0849 -0.1005,-0.47178 -0.0827,-1.13249 l 0.027,-1.00356 h 5.16711 5.16711 l 0.0267,1.08626 c 0.0147,0.59745 0.0147,1.09434 0,1.1042 -0.0147,0.01 -0.83732,0.0411 -1.82808,0.0693 l -1.80138,0.0514 -0.0474,5.63933 -0.0474,5.63934 -1.44584,0.0255 -1.44584,0.0255 z"
       id="path22"
       inkscape:connector-curvature="0"
       inkscape:export-xdpi="96"
       inkscape:export-ydpi="96" />
  </g>
</svg>
